<?xml version="1.0" standalone="no"?>
<!DOCTYPE svg PUBLIC "-//W3C//DTD SVG 20010904//EN"
 "http://www.w3.org/TR/2001/REC-SVG-20010904/DTD/svg10.dtd">
<svg version="1.0" xmlns="http://www.w3.org/2000/svg"
 width="155.000000pt" height="155.000000pt" viewBox="0 0 155.000000 155.000000"
 preserveAspectRatio="xMidYMid meet">
<metadata>
Created by potrace 1.11, written by Peter Selinger 2001-2013
</metadata>
<g transform="translate(0.000000,155.000000) scale(0.100000,-0.100000)"
fill="#000000" stroke="none">
<path d="M590 1525 c-156 -40 -274 -109 -376 -216 -144 -153 -217 -348 -209
-558 16 -436 376 -767 811 -744 285 15 539 187 659 445 49 107 66 177 70 294
7 216 -59 398 -205 556 -187 204 -484 293 -750 223z m60 -529 c0 -113 3 -146
13 -146 7 0 17 4 23 9 5 5 110 60 234 122 212 106 229 113 287 114 34 0 60 -2
57 -6 -2 -3 -123 -71 -269 -150 -145 -78 -264 -144 -262 -145 12 -9 351 -214
355 -214 3 0 20 -11 38 -25 18 -14 35 -25 38 -25 2 0 28 -15 57 -32 l52 -33
-66 -3 -66 -3 -243 140 -243 140 -3 -159 c-2 -143 -4 -160 -20 -161 -80 -5
-206 1 -236 11 -20 6 -48 27 -63 46 -22 29 -27 48 -31 112 -5 96 9 153 48 185
l29 25 -25 23 c-32 30 -44 80 -40 161 5 77 29 121 79 142 18 7 82 14 145 15
l112 2 0 -145z"/>
<path d="M448 1020 c-20 -15 -23 -27 -22 -80 2 -73 14 -90 70 -93 l39 -2 0 94
0 94 -32 3 c-20 1 -42 -5 -55 -16z"/>
<path d="M436 724 c-19 -19 -18 -14 -21 -94 -3 -89 10 -110 74 -110 l48 0 0
110 1 110 -43 0 c-26 0 -50 -6 -59 -16z"/>
</g>
</svg>
